<svg version="1.1" id="Layer_1" xmlns="http://www.w3.org/2000/svg" xmlns:xlink="http://www.w3.org/1999/xlink" x="0px" y="0px"
	 width="100%" viewBox="0 0 544 560" enable-background="new 0 0 544 560" xml:space="preserve">
<path fill="#1d293d" opacity="1.000000" stroke="none" 
	d="
M265.735840,27.681870 
	C267.951874,26.451603 269.894623,25.476933 271.718933,24.316154 
	C274.751465,22.386633 277.531097,22.708797 280.590698,24.479557 
	C295.426331,33.065788 310.315979,41.559578 325.230774,50.007919 
	C341.016266,58.949448 356.847565,67.810310 372.668396,76.689339 
	C376.536072,78.859985 380.052032,81.376801 381.004089,86.053749 
	C381.892883,90.419945 380.238678,94.022804 376.747955,96.544785 
	C372.777313,99.413498 368.529968,99.707352 364.094269,97.175819 
	C347.177765,87.521317 330.220612,77.937759 313.260315,68.360207 
	C301.955566,61.976349 290.593170,55.694080 279.317474,49.259632 
	C276.685791,47.757866 274.667999,47.972183 271.994904,49.528500 
	C242.502014,66.699623 212.891708,83.668907 183.349930,100.756355 
	C154.097855,117.676239 124.893799,134.679108 95.656097,151.623871 
	C85.285652,157.634094 74.974075,163.757126 64.442673,169.473145 
	C59.933849,171.920349 58.138817,174.990601 58.217880,180.161652 
	C58.454784,195.656693 58.175072,211.159042 58.167267,226.658554 
	C58.140987,278.825073 58.143318,330.991608 58.144623,383.158112 
	C58.144672,385.156708 58.236732,387.155640 58.303772,389.153839 
	C58.455044,393.662506 60.417641,396.677979 64.550697,399.011322 
	C79.914276,407.684906 95.177971,416.549744 110.246574,425.724762 
	C116.604141,429.595703 121.723602,429.613068 128.504303,425.816406 
	C136.253342,421.477539 139.227600,416.776031 139.164398,407.609039 
	C138.696640,339.778931 138.969360,271.944031 138.766296,204.111359 
	C138.747726,197.908966 140.511078,194.267258 146.044266,190.956253 
	C169.911880,176.674088 194.572266,163.798981 218.493820,149.624451 
	C223.013199,146.946518 224.129257,147.728287 224.141006,153.303650 
	C224.196457,179.635269 224.183121,205.967041 224.225388,232.298706 
	C224.236099,238.970139 224.288574,238.975388 230.885208,238.974182 
	C260.718445,238.968704 290.551666,238.969131 320.384918,238.945297 
	C326.938477,238.940063 326.983673,238.898499 326.995697,232.164474 
	C327.029297,213.331253 327.107819,194.497284 326.963623,175.665192 
	C326.932007,171.531937 328.251587,168.951599 331.938354,166.828842 
	C354.436646,153.874969 376.777405,140.647858 399.235870,127.624260 
	C408.731354,122.117859 418.423859,116.951851 427.943268,111.485596 
	C430.714569,109.894241 432.905518,109.968056 435.745758,111.600975 
	C459.125366,125.042343 482.610657,138.299866 506.058929,151.621857 
	C508.947815,153.263168 511.828949,154.920212 514.675476,156.633499 
	C518.248047,158.783859 519.165894,162.137650 518.990234,166.075989 
	C518.039795,187.390198 518.226135,208.718811 518.257812,230.045273 
	C518.291260,252.511063 518.004272,274.982391 518.408203,297.441406 
	C519.034546,332.263367 517.590088,367.072845 518.193420,401.886871 
	C518.273254,406.492249 516.554932,409.045990 512.552979,411.327942 
	C473.509918,433.590332 434.550049,455.999573 395.644745,478.502258 
	C373.027557,491.583893 350.588257,504.972687 328.001526,518.107422 
	C313.181702,526.725525 298.223267,535.105103 283.368896,543.664368 
	C279.995850,545.607910 276.904572,545.598999 273.511444,543.652649 
	C241.741623,525.429626 209.950272,507.243896 178.117310,489.131439 
	C173.428741,486.463745 170.042725,482.839325 169.991241,477.411682 
	C169.907837,468.618866 179.871872,464.454407 186.057068,468.105621 
	C212.573364,483.758545 239.455856,498.789551 266.060516,514.294983 
	C278.531982,521.563416 278.219025,521.538635 290.764587,514.144775 
	C316.298126,499.096436 342.033600,484.390900 367.675293,469.525879 
	C392.879578,454.914337 418.060211,440.262024 443.271423,425.662506 
	C459.689697,416.154907 476.103149,406.637207 492.617889,397.299347 
	C495.805084,395.497253 496.938629,393.308563 496.935059,389.714081 
	C496.864746,318.880951 496.870789,248.047653 496.978180,177.214584 
	C496.983978,173.393021 495.621826,171.053909 492.469604,169.094833 
	C479.025391,160.739349 464.907074,153.584686 451.197662,145.704880 
	C446.003967,142.719681 440.774323,139.796799 435.548187,136.868469 
	C434.536682,136.301697 433.515228,135.604782 432.413177,135.373154 
	C427.524506,134.345596 414.300781,145.199615 414.289520,150.216980 
	C414.241608,171.550217 414.202759,192.883530 414.201904,214.216812 
	C414.199829,265.216675 414.148743,316.216827 414.339935,367.216034 
	C414.360077,372.578949 412.654449,375.421112 407.859192,378.082916 
	C383.407349,391.655701 359.229309,405.721619 334.948364,419.602539 
	C333.818237,420.248627 332.844757,421.286957 331.294067,421.193390 
	C329.239197,419.786041 330.030914,417.597351 330.066040,415.739929 
	C330.598145,387.592957 329.556671,359.438385 330.550659,331.291504 
	C330.829437,323.397827 330.547882,323.365204 322.653778,323.362274 
	C291.987152,323.350922 261.319702,323.467010 230.654694,323.244110 
	C225.525833,323.206818 224.097321,324.838745 224.158279,329.807098 
	C224.393341,348.970734 224.023071,368.143463 224.393158,387.302856 
	C224.499191,392.792358 222.516754,395.912292 218.015503,398.479828 
	C199.796356,408.872101 181.700180,419.479645 163.521271,429.942871 
	C150.397156,437.496704 137.373032,445.220276 124.026154,452.395935 
	C120.070076,454.522888 117.073273,454.342163 113.456192,452.241974 
	C97.329857,442.878632 81.169350,433.572418 64.940720,424.387756 
	C57.852867,420.376404 50.954628,416.033844 43.550240,412.557190 
	C39.057236,410.447510 36.769608,406.886169 36.778187,401.406342 
	C36.876553,338.573883 36.818897,275.740997 36.689228,212.908463 
	C36.657944,197.749710 36.283150,182.590042 35.909889,167.434647 
	C35.795292,162.781570 37.401966,159.735306 41.614147,157.346710 
	C67.677879,142.566742 93.572044,127.479568 119.422562,112.339478 
	C142.379211,98.894279 165.437454,85.613922 188.431885,72.236588 
	C214.030746,57.344090 239.879639,42.873997 265.735840,27.681870 
M172.000732,201.582657 
	C170.814560,202.187531 169.668274,202.893539 168.435303,203.379745 
	C163.069382,205.495712 160.971558,208.925568 160.999008,215.126541 
	C161.267502,275.791779 161.146286,336.458710 161.171188,397.125153 
	C161.172241,399.678223 160.743164,402.333496 161.866272,405.055847 
	C174.706131,398.934082 186.211319,391.220184 198.462189,384.877899 
	C201.456116,383.327911 202.152283,381.366180 202.128189,378.121368 
	C201.956177,354.956390 202.036530,331.789612 202.015015,308.623383 
	C202.011810,305.162628 202.321640,302.567200 207.058273,302.560516 
	C253.217560,302.495361 299.376556,302.238434 345.535706,302.061768 
	C352.178223,302.036346 353.085602,302.803345 352.843781,309.614258 
	C352.063019,331.605804 352.391144,353.601807 352.354279,375.596283 
	C352.350220,378.034912 351.884827,380.614532 353.503754,382.766205 
	C355.286072,383.251038 356.446655,382.111877 357.702026,381.380066 
	C367.484161,375.677429 377.160309,369.785309 387.060150,364.296143 
	C390.750244,362.250061 392.048370,359.795532 392.040771,355.588745 
	C391.926971,292.422546 391.984741,229.256088 391.961212,166.089706 
	C391.960449,164.012054 392.509277,161.764267 391.099030,159.998642 
	C389.872620,159.418167 388.925964,159.943970 388.071777,160.363937 
	C375.498779,166.545700 363.805664,174.276718 351.607635,181.120560 
	C349.964264,182.042572 349.545258,183.403015 349.560242,185.284531 
	C349.740906,207.945801 349.856934,230.607758 349.922363,253.269699 
	C349.942078,260.094421 349.701233,260.224091 342.868927,260.221832 
	C298.035797,260.206848 253.202652,260.194458 208.369507,260.191833 
	C202.128998,260.191467 201.977280,260.081696 201.980118,253.755005 
	C201.988983,233.921814 202.031799,214.088608 202.003738,194.255478 
	C201.999832,191.497787 202.406067,188.649200 201.021439,185.439392 
	C190.655289,189.427094 182.148499,196.258392 172.000732,201.582657 
z"/>
</svg>